<?xml version="1.0" standalone="no"?>
<!DOCTYPE svg PUBLIC "-//W3C//DTD SVG 20010904//EN"
 "http://www.w3.org/TR/2001/REC-SVG-20010904/DTD/svg10.dtd">
<svg version="1.0" xmlns="http://www.w3.org/2000/svg"
 width="512.000000pt" height="512.000000pt" viewBox="0 0 512.000000 512.000000"
 preserveAspectRatio="xMidYMid meet">
<metadata>
Created by potrace 1.14, written by Peter Selinger 2001-2017
</metadata>
<g transform="translate(0.000000,512.000000) scale(0.100000,-0.100000)"
fill="#000000" stroke="none">
<path d="M2452 4494 c-26 -18 -31 -84 -7 -104 10 -9 13 -28 10 -78 -3 -37 -7
-108 -9 -159 -4 -100 -8 -113 -35 -113 -9 0 -21 -4 -26 -8 -6 -5 -26 -15 -45
-22 -58 -23 -162 -94 -221 -151 -133 -129 -233 -323 -284 -548 l-16 -69 31
-55 31 -55 -58 -38 c-152 -99 -298 -245 -395 -394 -84 -128 -122 -216 -188
-435 -5 -16 -12 -55 -15 -85 -4 -30 -9 -58 -11 -62 -12 -19 -4 -313 11 -383 2
-11 8 -44 14 -73 35 -175 130 -374 257 -537 262 -338 662 -528 1093 -518 621
13 1147 438 1290 1043 42 176 47 444 12 568 -5 18 -9 33 -9 35 4 9 -31 127
-59 197 -69 172 -186 351 -307 470 -31 30 -56 58 -56 62 0 4 14 27 30 51 29
40 31 48 32 142 4 449 -192 748 -567 868 -44 14 -100 28 -125 32 -25 3 -54 8
-65 10 -11 2 -37 4 -58 4 -37 1 -38 2 -36 39 2 20 11 49 21 64 31 45 22 90
-22 113 -74 38 -139 -48 -87 -113 9 -11 11 -101 3 -109 -1 -1 -15 -4 -32 -7
l-31 -6 3 78 c10 200 12 224 27 240 63 69 -24 160 -101 106z"/>
</g>
</svg>
